PathFileType	4	(X/Y/Z)	./resultDataOpenSim/trcMotMarkerGrf/sub10/qtm-04-01.trc
DataRate	CameraRate	NumFrames	NumMarkers	Units	OrigDataRate	OrigDataStartFrame	OrigNumFrames
250.000000	250.000000	6	24	m	250.000000	185	493
Frame#	Time	L.Toe.Tip			R.Toe.Tip			L.Ankle.Lat			R.Ankle.Lat			L.Ankle.Med			R.Ankle.Med			L.Heel			R.Heel			L.Knee.Lat			R.Knee.Lat			L.Knee.Med			R.Knee.Med			L.Thigh.Upper			R.Thigh.Upper			L.ASIS			R.ASIS			V.Sacral			L.Acromium			R.Acromium			C7			L.Elbow			R.Elbow			L.Wrist.Lat			R.Wrist.Lat
		X1	Y1	Z1	X2	Y2	Z2	X3	Y3	Z3	X4	Y4	Z4	X5	Y5	Z5	X6	Y6	Z6	X7	Y7	Z7	X8	Y8	Z8	X9	Y9	Z9	X10	Y10	Z10	X11	Y11	Z11	X12	Y12	Z12	X13	Y13	Z13	X14	Y14	Z14	X15	Y15	Z15	X16	Y16	Z16	X17	Y17	Z17	X18	Y18	Z18	X19	Y19	Z19	X20	Y20	Z20	X21	Y21	Z21	X22	Y22	Z22	X23	Y23	Z23	X24	Y24	Z24

185	0.736	0.095318552	-0.031365619	-0.043531514	-0.66729381	0.039179972	0.05668998	-0.043179328	-0.0012183188	-0.087658294	-0.78801219	0.11068636	0.08571516	-0.039311784	0.026364173	-0.00771277	-0.74974762	0.12171375	0.0038026815	-0.10395473	-0.025896848	-0.042739391	-0.83891499	0.11091956	0.032844569	-0.073119585	0.38790849	-0.12637928	-0.50694251	0.3990275	0.12414428	-0.047131328	0.37379235	-0.0072340133	-0.46697418	0.3848564	0.00092528006	-0.19942452	0.75007861	-0.18245883	-0.35477359	0.77411144	0.18020373	-0.1651524	0.85525039	-0.091661239	-0.24203141	0.84661065	0.1468502	-0.38665575	0.87163973	-0.043463428	-0.27240937	1.3227873	-0.15952846	-0.30491358	1.3293982	0.15857014	-0.36949127	1.3490368	-0.013143778	-0.44420474	1.0346736	-0.20975543	-0.27879585	0.9802718	0.25155192	-0.43067404	0.80489281	-0.28709547	-0.033255323	0.92281431	0.23667971
186	0.74	0.095468808	-0.031688203	-0.043284279	-0.66660694	0.039202485	0.05688373	-0.04340164	-0.0033042866	-0.086880308	-0.78474395	0.11473777	0.08653546	-0.039925941	0.024039697	-0.0067277342	-0.74597815	0.12448978	0.0049681409	-0.10404185	-0.029167728	-0.04221513	-0.83521356	0.11631054	0.033076229	-0.067021606	0.38613056	-0.12569673	-0.49892835	0.39794748	0.12436784	-0.041940813	0.37194079	-0.0064279567	-0.45889791	0.38329742	0.0013403636	-0.19245071	0.74868442	-0.18285293	-0.34609097	0.77218718	0.18042591	-0.1574992	0.85421974	-0.092468212	-0.23257557	0.84463105	0.14577822	-0.37917681	0.87056826	-0.042759655	-0.26536384	1.3212091	-0.16050407	-0.29846638	1.3285284	0.1577257	-0.36261533	1.3474075	-0.014323366	-0.43630661	1.0326381	-0.20973248	-0.27341396	0.97922708	0.25054184	-0.42370848	0.80287975	-0.28721514	-0.027920235	0.92091904	0.23653738
187	0.744	0.095714595	-0.031982543	-0.043125648	-0.66586014	0.039213599	0.057016612	-0.043279342	-0.0051656355	-0.086171156	-0.78109214	0.11895887	0.087274337	-0.040267438	0.021826243	-0.0057658363	-0.74176509	0.12731634	0.0061235423	-0.10413278	-0.032070389	-0.041937503	-0.83100644	0.12192048	0.033350201	-0.061029163	0.38450526	-0.12497234	-0.490439	0.39678551	0.12468819	-0.037110791	0.37001866	-0.005509779	-0.45042488	0.38167347	0.0019055742	-0.18539866	0.74733616	-0.1832138	-0.33732501	0.77027287	0.18064853	-0.14988263	0.85317716	-0.093273305	-0.22326441	0.84270063	0.14473617	-0.37176191	0.8694885	-0.042178294	-0.25828344	1.3196851	-0.16148377	-0.29197805	1.3276815	0.1568771	-0.35568172	1.3458583	-0.01552042	-0.42835811	1.0306314	-0.20974709	-0.26808727	0.97818785	0.24950677	-0.41654517	0.80087822	-0.28731153	-0.022673162	0.91891232	0.23647284
188	0.748	0.095980284	-0.032245733	-0.042993171	-0.66506503	0.039185752	0.057053029	-0.042988412	-0.0068258778	-0.085456166	-0.77700879	0.12333426	0.087928484	-0.040313825	0.01983657	-0.0047691024	-0.73691681	0.13013032	0.0073143242	-0.10436259	-0.034346238	-0.041912218	-0.82619353	0.12774946	0.033592227	-0.055139663	0.38304551	-0.12422731	-0.48146723	0.39553102	0.12511327	-0.032626988	0.36802943	-0.0044830473	-0.44155154	0.3799551	0.0026512303	-0.17824053	0.74606482	-0.18359021	-0.32848187	0.76838719	0.18086386	-0.1423181	0.85212069	-0.094063809	-0.21415143	0.84084359	0.14373691	-0.36452321	0.86833752	-0.041651973	-0.25115764	1.318225	-0.16247573	-0.28542381	1.3268562	0.15603436	-0.34869603	1.3444061	-0.016721222	-0.42036896	1.0286655	-0.2097782	-0.26278935	0.9771607	0.24845703	-0.40918469	0.79889395	-0.28737752	-0.017521765	0.91679433	0.23649387
189	0.752	0.096227941	-0.032482192	-0.042793075	-0.66421714	0.039092045	0.056999056	-0.042647078	-0.0082165205	-0.084698523	-0.77240306	0.12785465	0.088489324	-0.040117527	0.018138534	-0.0036843672	-0.73122874	0.13284908	0.0086148933	-0.10465589	-0.035921648	-0.041945136	-0.82067025	0.13378201	0.033687358	-0.049233811	0.38171984	-0.1234444	-0.47200981	0.39418122	0.12563748	-0.028483581	0.36600014	-0.0033431687	-0.43226611	0.37810848	0.0035870711	-0.17094309	0.7449095	-0.18403084	-0.31956693	0.76653053	0.18105558	-0.13483034	0.85105313	-0.094829108	-0.20526519	0.83909829	0.14278291	-0.35750348	0.86717102	-0.041080716	-0.24399686	1.3168378	-0.1634926	-0.27877913	1.3260552	0.15519233	-0.34167028	1.343061	-0.017909183	-0.41234162	1.026747	-0.20982353	-0.25749745	0.97615057	0.24738823	-0.40161809	0.79693235	-0.28741222	-0.012475305	0.91457067	0.23660394
190	0.756	0.096477201	-0.032688352	-0.04250735	-0.66328907	0.03893588	0.056920048	-0.042260925	-0.0092229122	-0.083902397	-0.76717828	0.13250462	0.088955115	-0.039758814	0.016758632	-0.0025030978	-0.72468316	0.13542631	0.010054907	-0.10485227	-0.036855596	-0.041782332	-0.81435842	0.13998216	0.033580019	-0.04320269	0.38049825	-0.12256763	-0.4620698	0.39273968	0.12624256	-0.024655062	0.3639897	-0.0020927231	-0.42252521	0.37609743	0.0046977681	-0.16349603	0.74391911	-0.18456317	-0.31059352	0.76468388	0.18119911	-0.12745614	0.84999048	-0.095567975	-0.1966499	0.83750225	0.14189045	-0.35056705	0.86615787	-0.040409028	-0.23681182	1.3155326	-0.16453547	-0.27203525	1.3252919	0.15433928	-0.3346175	1.3418344	-0.019072679	-0.40427546	1.0248789	-0.20989216	-0.25220812	0.97516363	0.24628557	-0.39383213	0.7949993	-0.28742272	-0.0075432881	0.91225042	0.23679917
